Renner-300-Light.ufo
<glyph name="two" format="1">
  <advance width="547"/>
  <unicode hex="0032"/>
  <outline>
    <contour>
      <point x="22" y="0" type="line"/>
      <point x="349" y="345" type="line" smooth="yes"/>
      <point x="396" y="395"/>
      <point x="430" y="444"/>
      <point x="430" y="511" type="curve" smooth="yes"/>
      <point x="430" y="579"/>
      <point x="386" y="659"/>
      <point x="283" y="659" type="curve" smooth="yes"/>
      <point x="181" y="659"/>
      <point x="113" y="580"/>
      <point x="113" y="460" type="curve"/>
      <point x="58" y="460" type="line"/>
      <point x="58" y="609"/>
      <point x="146" y="711"/>
      <point x="283" y="711" type="curve" smooth="yes"/>
      <point x="429" y="711"/>
      <point x="487" y="597"/>
      <point x="487" y="507" type="curve" smooth="yes"/>
      <point x="487" y="431"/>
      <point x="445" y="370"/>
      <point x="392" y="315" type="curve" smooth="yes"/>
      <point x="137" y="52" type="line"/>
      <point x="500" y="52" type="line"/>
      <point x="500" y="0" type="line"/>
    </contour>
  </outline>
</glyph>
<glyph name="four" format="1">
  <advance width="571"/>
  <unicode hex="0034"/>
  <outline>
    <contour>
      <point x="22" y="140" type="line"/>
      <point x="68" y="189" type="line"/>
      <point x="397" y="189" type="line" smooth="yes"/>
      <point x="408" y="189" type="line" smooth="yes"/>
      <point x="539" y="189" type="line"/>
      <point x="539" y="140" type="line"/>
    </contour>
    <contour>
      <point x="81" y="140" type="line"/>
      <point x="22" y="140" type="line"/>
      <point x="408" y="700" type="line"/>
      <point x="429" y="700" type="line"/>
      <point x="429" y="0" type="line"/>
      <point x="374" y="0" type="line"/>
      <point x="374" y="162" type="line" smooth="yes"/>
      <point x="374" y="171" type="line" smooth="yes"/>
      <point x="374" y="573" type="line"/>
    </contour>
  </outline>
</glyph>
<glyph name="colon" format="1">
  <advance width="300"/>
  <unicode hex="003A"/>
  <outline>
    <contour>
      <point x="105" y="24" type="curve" smooth="yes"/>
      <point x="105" y="45"/>
      <point x="122" y="62"/>
      <point x="142" y="62" type="curve" smooth="yes"/>
      <point x="162" y="62"/>
      <point x="179" y="45"/>
      <point x="179" y="24" type="curve" smooth="yes"/>
      <point x="179" y="3"/>
      <point x="162" y="-13"/>
      <point x="142" y="-13" type="curve" smooth="yes"/>
      <point x="122" y="-13"/>
      <point x="105" y="3"/>
    </contour>
    <contour>
      <point x="105" y="392" type="curve" smooth="yes"/>
      <point x="105" y="413"/>
      <point x="122" y="429"/>
      <point x="142" y="429" type="curve" smooth="yes"/>
      <point x="162" y="429"/>
      <point x="179" y="413"/>
      <point x="179" y="392" type="curve" smooth="yes"/>
      <point x="179" y="371"/>
      <point x="162" y="354"/>
      <point x="142" y="354" type="curve" smooth="yes"/>
      <point x="122" y="354"/>
      <point x="105" y="371"/>
    </contour>
  </outline>
</glyph>
<glyph name="F" format="1">
  <advance width="480"/>
  <unicode hex="0046"/>
  <outline>
    <contour>
      <point x="113" y="648" type="line"/>
      <point x="113" y="700" type="line"/>
      <point x="420" y="700" type="line"/>
      <point x="420" y="648" type="line"/>
    </contour>
    <contour>
      <point x="113" y="353" type="line"/>
      <point x="113" y="405" type="line"/>
      <point x="410" y="405" type="line"/>
      <point x="410" y="353" type="line"/>
    </contour>
    <contour>
      <point x="84" y="700" type="line"/>
      <point x="139" y="700" type="line"/>
      <point x="139" y="0" type="line"/>
      <point x="84" y="0" type="line"/>
    </contour>
  </outline>
</glyph>
<glyph name="O" format="1">
  <advance width="783"/>
  <unicode hex="004F"/>
  <outline>
    <contour>
      <point x="102" y="350" type="curve" smooth="yes"/>
      <point x="102" y="175"/>
      <point x="224" y="46"/>
      <point x="392" y="46" type="curve" smooth="yes"/>
      <point x="560" y="46"/>
      <point x="681" y="175"/>
      <point x="681" y="350" type="curve" smooth="yes"/>
      <point x="681" y="525"/>
      <point x="560" y="654"/>
      <point x="392" y="654" type="curve" smooth="yes"/>
      <point x="224" y="654"/>
      <point x="102" y="525"/>
    </contour>
    <contour>
      <point x="44" y="350" type="curve" smooth="yes"/>
      <point x="44" y="556"/>
      <point x="192" y="709"/>
      <point x="392" y="709" type="curve" smooth="yes"/>
      <point x="592" y="709"/>
      <point x="740" y="556"/>
      <point x="740" y="350" type="curve" smooth="yes"/>
      <point x="740" y="144"/>
      <point x="592" y="-9"/>
      <point x="392" y="-9" type="curve" smooth="yes"/>
      <point x="192" y="-9"/>
      <point x="44" y="144"/>
    </contour>
  </outline>
</glyph>
<glyph name="S" format="1">
  <advance width="524"/>
  <unicode hex="0053"/>
  <outline>
    <contour>
      <point x="87" y="214" type="line"/>
      <point x="123" y="121"/>
      <point x="178" y="43"/>
      <point x="279" y="43" type="curve" smooth="yes"/>
      <point x="379" y="43"/>
      <point x="422" y="99"/>
      <point x="422" y="180" type="curve" smooth="yes"/>
      <point x="422" y="275"/>
      <point x="336" y="318"/>
      <point x="257" y="347" type="curve" smooth="yes"/>
      <point x="183" y="374"/>
      <point x="77" y="427"/>
      <point x="77" y="541" type="curve" smooth="yes"/>
      <point x="77" y="643"/>
      <point x="162" y="709"/>
      <point x="268" y="709" type="curve" smooth="yes"/>
      <point x="381" y="709"/>
      <point x="448" y="627"/>
      <point x="472" y="556" type="curve"/>
      <point x="427" y="528" type="line"/>
      <point x="401" y="590"/>
      <point x="358" y="656"/>
      <point x="269" y="656" type="curve" smooth="yes"/>
      <point x="191" y="656"/>
      <point x="135" y="608"/>
      <point x="135" y="537" type="curve" smooth="yes"/>
      <point x="135" y="456"/>
      <point x="220" y="417"/>
      <point x="305" y="385" type="curve" smooth="yes"/>
      <point x="382" y="357"/>
      <point x="479" y="304"/>
      <point x="479" y="184" type="curve" smooth="yes"/>
      <point x="479" y="73"/>
      <point x="415" y="-9"/>
      <point x="276" y="-9" type="curve" smooth="yes"/>
      <point x="157" y="-9"/>
      <point x="78" y="79"/>
      <point x="40" y="187" type="curve"/>
    </contour>
  </outline>
</glyph>
<glyph name="i" format="1">
  <advance width="232"/>
  <unicode hex="0069"/>
  <outline>
    <contour>
      <point x="79" y="668" type="curve" smooth="yes"/>
      <point x="79" y="688"/>
      <point x="95" y="705"/>
      <point x="116" y="705" type="curve" smooth="yes"/>
      <point x="137" y="705"/>
      <point x="153" y="688"/>
      <point x="153" y="668" type="curve" smooth="yes"/>
      <point x="153" y="648"/>
      <point x="137" y="631"/>
      <point x="116" y="631" type="curve" smooth="yes"/>
      <point x="95" y="631"/>
      <point x="79" y="648"/>
    </contour>
    <contour>
      <point x="90" y="460" type="line"/>
      <point x="142" y="460" type="line"/>
      <point x="142" y="0" type="line"/>
      <point x="90" y="0" type="line"/>
    </contour>
  </outline>
</glyph>
<glyph name="n" format="1">
  <advance width="505"/>
  <unicode hex="006E"/>
  <outline>
    <contour>
      <point x="131" y="460" type="line"/>
      <point x="131" y="0" type="line"/>
      <point x="79" y="0" type="line"/>
      <point x="79" y="460" type="line"/>
    </contour>
    <contour>
      <point x="374" y="296" type="line" smooth="yes"/>
      <point x="374" y="374"/>
      <point x="341" y="421"/>
      <point x="266" y="421" type="curve" smooth="yes"/>
      <point x="188" y="421"/>
      <point x="131" y="358"/>
      <point x="131" y="280" type="curve"/>
      <point x="113" y="280" type="line"/>
      <point x="113" y="389"/>
      <point x="183" y="470"/>
      <point x="278" y="470" type="curve" smooth="yes"/>
      <point x="373" y="470"/>
      <point x="426" y="409"/>
      <point x="426" y="302" type="curve" smooth="yes"/>
      <point x="426" y="0" type="line"/>
      <point x="374" y="0" type="line"/>
    </contour>
  </outline>
</glyph>
<glyph name="s" format="1">
  <advance width="403"/>
  <unicode hex="0073"/>
  <outline>
    <contour>
      <point x="78" y="155" type="line"/>
      <point x="91" y="93"/>
      <point x="132" y="39"/>
      <point x="205" y="39" type="curve" smooth="yes"/>
      <point x="264" y="39"/>
      <point x="303" y="73"/>
      <point x="303" y="121" type="curve" smooth="yes"/>
      <point x="303" y="177"/>
      <point x="249" y="200"/>
      <point x="190" y="221" type="curve" smooth="yes"/>
      <point x="123" y="245"/>
      <point x="59" y="277"/>
      <point x="59" y="358" type="curve" smooth="yes"/>
      <point x="59" y="427"/>
      <point x="118" y="469"/>
      <point x="191" y="469" type="curve" smooth="yes"/>
      <point x="277" y="469"/>
      <point x="329" y="404"/>
      <point x="347" y="353" type="curve"/>
      <point x="304" y="337" type="line"/>
      <point x="284" y="375"/>
      <point x="251" y="420"/>
      <point x="191" y="420" type="curve" smooth="yes"/>
      <point x="141" y="420"/>
      <point x="111" y="398"/>
      <point x="111" y="355" type="curve" smooth="yes"/>
      <point x="111" y="303"/>
      <point x="170" y="277"/>
      <point x="229" y="256" type="curve" smooth="yes"/>
      <point x="295" y="232"/>
      <point x="357" y="194"/>
      <point x="357" y="125" type="curve" smooth="yes"/>
      <point x="357" y="39"/>
      <point x="293" y="-10"/>
      <point x="202" y="-10" type="curve" smooth="yes"/>
      <point x="109" y="-10"/>
      <point x="45" y="61"/>
      <point x="31" y="141" type="curve"/>
    </contour>
  </outline>
</glyph>
<glyph name="cent" format="1">
  <advance width="580"/>
  <unicode hex="00A2"/>
  <outline>
    <contour>
      <point x="294" y="21" type="line"/>
      <point x="334" y="21" type="line"/>
      <point x="336" y="-112" type="line"/>
      <point x="292" y="-112" type="line"/>
    </contour>
    <contour>
      <point x="136" y="230" type="curve" smooth="yes"/>
      <point x="136" y="120"/>
      <point x="214" y="39"/>
      <point x="319" y="39" type="curve" smooth="yes"/>
      <point x="393" y="39"/>
      <point x="456" y="77"/>
      <point x="477" y="114" type="curve"/>
      <point x="477" y="49" type="line"/>
      <point x="449" y="16"/>
      <point x="386" y="-10"/>
      <point x="319" y="-10" type="curve" smooth="yes"/>
      <point x="185" y="-10"/>
      <point x="83" y="91"/>
      <point x="83" y="230" type="curve" smooth="yes"/>
      <point x="83" y="369"/>
      <point x="185" y="470"/>
      <point x="319" y="470" type="curve" smooth="yes"/>
      <point x="386" y="470"/>
      <point x="449" y="443"/>
      <point x="477" y="411" type="curve"/>
      <point x="477" y="346" type="line"/>
      <point x="456" y="383"/>
      <point x="393" y="421"/>
      <point x="319" y="421" type="curve" smooth="yes"/>
      <point x="214" y="421"/>
      <point x="136" y="340"/>
    </contour>
    <contour>
      <point x="292" y="578" type="line"/>
      <point x="336" y="578" type="line"/>
      <point x="334" y="442" type="line"/>
      <point x="294" y="442" type="line"/>
    </contour>
  </outline>
</glyph>
<glyph name="copyright" format="1">
  <advance width="800"/>
  <unicode hex="00A9"/>
  <outline>
    <contour>
      <point x="223" y="350" type="curve" smooth="yes"/>
      <point x="223" y="243"/>
      <point x="295" y="168"/>
      <point x="393" y="168" type="curve" smooth="yes"/>
      <point x="452" y="168"/>
      <point x="497" y="189"/>
      <point x="528" y="225" type="curve"/>
      <point x="528" y="181" type="line"/>
      <point x="493" y="150"/>
      <point x="454" y="134"/>
      <point x="393" y="134" type="curve" smooth="yes"/>
      <point x="277" y="134"/>
      <point x="187" y="225"/>
      <point x="187" y="350" type="curve" smooth="yes"/>
      <point x="187" y="475"/>
      <point x="277" y="566"/>
      <point x="393" y="566" type="curve" smooth="yes"/>
      <point x="454" y="566"/>
      <point x="493" y="550"/>
      <point x="528" y="519" type="curve"/>
      <point x="528" y="475" type="line"/>
      <point x="497" y="511"/>
      <point x="451" y="532"/>
      <point x="393" y="532" type="curve" smooth="yes"/>
      <point x="295" y="532"/>
      <point x="223" y="458"/>
    </contour>
    <contour>
      <point x="77" y="350" type="curve" smooth="yes"/>
      <point x="77" y="162"/>
      <point x="219" y="24"/>
      <point x="400" y="24" type="curve" smooth="yes"/>
      <point x="581" y="24"/>
      <point x="723" y="162"/>
      <point x="723" y="350" type="curve" smooth="yes"/>
      <point x="723" y="538"/>
      <point x="581" y="676"/>
      <point x="400" y="676" type="curve" smooth="yes"/>
      <point x="219" y="676"/>
      <point x="77" y="538"/>
    </contour>
    <contour>
      <point x="40" y="350" type="curve" smooth="yes"/>
      <point x="40" y="559"/>
      <point x="196" y="710"/>
      <point x="400" y="710" type="curve" smooth="yes"/>
      <point x="604" y="710"/>
      <point x="760" y="559"/>
      <point x="760" y="350" type="curve" smooth="yes"/>
      <point x="760" y="141"/>
      <point x="604" y="-10"/>
      <point x="400" y="-10" type="curve" smooth="yes"/>
      <point x="196" y="-10"/>
      <point x="40" y="141"/>
    </contour>
  </outline>
</glyph>
<glyph name="ordfeminine" format="1">
  <advance width="238"/>
  <unicode hex="00AA"/>
  <outline>
    <contour>
      <point x="49" y="530" type="curve" smooth="yes"/>
      <point x="49" y="497"/>
      <point x="71" y="479"/>
      <point x="107" y="479" type="curve" smooth="yes"/>
      <point x="146" y="479"/>
      <point x="180" y="503"/>
      <point x="180" y="546" type="curve"/>
      <point x="186" y="531" type="line"/>
      <point x="186" y="487"/>
      <point x="150" y="455"/>
      <point x="101" y="455" type="curve" smooth="yes"/>
      <point x="61" y="455"/>
      <point x="22" y="480"/>
      <point x="22" y="530" type="curve" smooth="yes"/>
      <point x="22" y="578"/>
      <point x="69" y="608"/>
      <point x="117" y="608" type="curve" smooth="yes"/>
      <point x="159" y="608"/>
      <point x="182" y="589"/>
      <point x="190" y="581" type="curve"/>
      <point x="190" y="564" type="line"/>
      <point x="172" y="578"/>
      <point x="149" y="588"/>
      <point x="118" y="588" type="curve" smooth="yes"/>
      <point x="80" y="588"/>
      <point x="49" y="565"/>
    </contour>
    <contour>
      <point x="56" y="652" type="curve"/>
      <point x="43" y="673" type="line"/>
      <point x="60" y="687"/>
      <point x="87" y="703"/>
      <point x="127" y="703" type="curve" smooth="yes"/>
      <point x="176" y="703"/>
      <point x="206" y="675"/>
      <point x="206" y="631" type="curve" smooth="yes"/>
      <point x="206" y="460" type="line"/>
      <point x="180" y="460" type="line"/>
      <point x="180" y="631" type="line" smooth="yes"/>
      <point x="180" y="662"/>
      <point x="159" y="680"/>
      <point x="127" y="680" type="curve" smooth="yes"/>
      <point x="94" y="680"/>
      <point x="70" y="664"/>
    </contour>
  </outline>
</glyph>
<glyph name="guillemotleft" format="1">
  <advance width="500"/>
  <unicode hex="00AB"/>
  <outline>
    <contour>
      <point x="86" y="243" type="line"/>
      <point x="40" y="255" type="line"/>
      <point x="237" y="490" type="line"/>
      <point x="270" y="460" type="line"/>
    </contour>
    <contour>
      <point x="40" y="255" type="line"/>
      <point x="86" y="273" type="line"/>
      <point x="270" y="50" type="line"/>
      <point x="237" y="20" type="line"/>
    </contour>
    <contour>
      <point x="246" y="243" type="line"/>
      <point x="200" y="255" type="line"/>
      <point x="397" y="490" type="line"/>
      <point x="430" y="460" type="line"/>
    </contour>
    <contour>
      <point x="200" y="255" type="line"/>
      <point x="246" y="273" type="line"/>
      <point x="430" y="50" type="line"/>
      <point x="397" y="20" type="line"/>
    </contour>
  </outline>
</glyph>
<glyph name="plusminus" format="1">
  <advance width="613"/>
  <unicode hex="00B1"/>
  <outline>
    <contour>
      <point x="65" y="0" type="line"/>
      <point x="65" y="52" type="line"/>
      <point x="548" y="52" type="line"/>
      <point x="548" y="0" type="line"/>
    </contour>
    <contour>
      <point x="65" y="359" type="line"/>
      <point x="65" y="411" type="line"/>
      <point x="548" y="411" type="line"/>
      <point x="548" y="359" type="line"/>
    </contour>
    <contour>
      <point x="279" y="620" type="line"/>
      <point x="334" y="620" type="line"/>
      <point x="334" y="150" type="line"/>
      <point x="279" y="150" type="line"/>
    </contour>
  </outline>
</glyph>
<glyph name="Aacute" format="1">
  <advance width="636"/>
  <unicode hex="00C1"/>
  <outline>
    <contour>
      <point x="139" y="235" type="line"/>
      <point x="157" y="287" type="line"/>
      <point x="481" y="287" type="line"/>
      <point x="499" y="235" type="line"/>
    </contour>
    <contour>
      <point x="318" y="600" type="line"/>
      <point x="182" y="269" type="line"/>
      <point x="176" y="257" type="line"/>
      <point x="71" y="0" type="line"/>
      <point x="9" y="0" type="line"/>
      <point x="318" y="727" type="line"/>
      <point x="627" y="0" type="line"/>
      <point x="565" y="0" type="line"/>
      <point x="461" y="253" type="line"/>
      <point x="456" y="266" type="line"/>
    </contour>
    <contour>
      <point x="450" y="940" type="line"/>
      <point x="273" y="787" type="line"/>
      <point x="244" y="807" type="line"/>
      <point x="402" y="967" type="line"/>
    </contour>
  </outline>
</glyph>
<glyph name="Odieresis" format="1">
  <advance width="783"/>
  <unicode hex="00D6"/>
  <outline>
    <contour>
      <point x="102" y="350" type="curve" smooth="yes"/>
      <point x="102" y="175"/>
      <point x="224" y="46"/>
      <point x="392" y="46" type="curve" smooth="yes"/>
      <point x="560" y="46"/>
      <point x="681" y="175"/>
      <point x="681" y="350" type="curve" smooth="yes"/>
      <point x="681" y="525"/>
      <point x="560" y="654"/>
      <point x="392" y="654" type="curve" smooth="yes"/>
      <point x="224" y="654"/>
      <point x="102" y="525"/>
    </contour>
    <contour>
      <point x="44" y="350" type="curve" smooth="yes"/>
      <point x="44" y="556"/>
      <point x="192" y="709"/>
      <point x="392" y="709" type="curve" smooth="yes"/>
      <point x="592" y="709"/>
      <point x="740" y="556"/>
      <point x="740" y="350" type="curve" smooth="yes"/>
      <point x="740" y="144"/>
      <point x="592" y="-9"/>
      <point x="392" y="-9" type="curve" smooth="yes"/>
      <point x="192" y="-9"/>
      <point x="44" y="144"/>
    </contour>
    <contour>
      <point x="458" y="819" type="curve" smooth="yes"/>
      <point x="458" y="840"/>
      <point x="476" y="856"/>
      <point x="496" y="856" type="curve" smooth="yes"/>
      <point x="516" y="856"/>
      <point x="533" y="840"/>
      <point x="533" y="819" type="curve" smooth="yes"/>
      <point x="533" y="798"/>
      <point x="516" y="781"/>
      <point x="496" y="781" type="curve" smooth="yes"/>
      <point x="476" y="781"/>
      <point x="458" y="798"/>
    </contour>
    <contour>
      <point x="250" y="819" type="curve" smooth="yes"/>
      <point x="250" y="840"/>
      <point x="268" y="856"/>
      <point x="288" y="856" type="curve" smooth="yes"/>
      <point x="308" y="856"/>
      <point x="325" y="840"/>
      <point x="325" y="819" type="curve" smooth="yes"/>
      <point x="325" y="798"/>
      <point x="308" y="781"/>
      <point x="288" y="781" type="curve" smooth="yes"/>
      <point x="268" y="781"/>
      <point x="250" y="798"/>
    </contour>
  </outline>
</glyph>
<glyph name="Yacute" format="1">
  <advance width="539"/>
  <unicode hex="00DD"/>
  <outline>
    <contour>
      <point x="240" y="326" type="line"/>
      <point x="295" y="326" type="line"/>
      <point x="295" y="0" type="line"/>
      <point x="240" y="0" type="line"/>
    </contour>
    <contour>
      <point x="468" y="700" type="line"/>
      <point x="530" y="700" type="line"/>
      <point x="267" y="240" type="line"/>
      <point x="9" y="700" type="line"/>
      <point x="71" y="700" type="line"/>
      <point x="267" y="338" type="line"/>
    </contour>
    <contour>
      <point x="410" y="922" type="line"/>
      <point x="232" y="769" type="line"/>
      <point x="204" y="789" type="line"/>
      <point x="362" y="949" type="line"/>
    </contour>
  </outline>
</glyph>
<glyph name="agrave" format="1">
  <advance width="465"/>
  <unicode hex="00E0"/>
  <outline>
    <contour>
      <point x="87" y="135" type="curve" smooth="yes"/>
      <point x="87" y="66"/>
      <point x="136" y="37"/>
      <point x="202" y="37" type="curve" smooth="yes"/>
      <point x="286" y="37"/>
      <point x="349" y="86"/>
      <point x="349" y="172" type="curve"/>
      <point x="361" y="142" type="line"/>
      <point x="361" y="53"/>
      <point x="288" y="-10"/>
      <point x="190" y="-10" type="curve" smooth="yes"/>
      <point x="103" y="-10"/>
      <point x="34" y="37"/>
      <point x="34" y="129" type="curve" smooth="yes"/>
      <point x="34" y="232"/>
      <point x="121" y="284"/>
      <point x="224" y="284" type="curve" smooth="yes"/>
      <point x="308" y="284"/>
      <point x="353" y="246"/>
      <point x="370" y="229" type="curve"/>
      <point x="370" y="197" type="line"/>
      <point x="333" y="225"/>
      <point x="288" y="243"/>
      <point x="226" y="243" type="curve" smooth="yes"/>
      <point x="144" y="243"/>
      <point x="87" y="205"/>
    </contour>
    <contour>
      <point x="100" y="369" type="curve"/>
      <point x="74" y="409" type="line"/>
      <point x="108" y="436"/>
      <point x="163" y="470"/>
      <point x="242" y="470" type="curve" smooth="yes"/>
      <point x="341" y="470"/>
      <point x="401" y="415"/>
      <point x="401" y="326" type="curve" smooth="yes"/>
      <point x="401" y="0" type="line"/>
      <point x="349" y="0" type="line"/>
      <point x="349" y="326" type="line" smooth="yes"/>
      <point x="349" y="388"/>
      <point x="305" y="424"/>
      <point x="242" y="424" type="curve" smooth="yes"/>
      <point x="176" y="424"/>
      <point x="128" y="393"/>
    </contour>
    <contour>
      <point x="92" y="691" type="line"/>
      <point x="140" y="718" type="line"/>
      <point x="298" y="558" type="line"/>
      <point x="269" y="538" type="line"/>
    </contour>
  </outline>
</glyph>
<glyph name="ae" format="1">
  <advance width="825"/>
  <unicode hex="00E6"/>
  <outline>
    <contour>
      <point x="87" y="134" type="curve" smooth="yes"/>
      <point x="87" y="77"/>
      <point x="124" y="37"/>
      <point x="202" y="37" type="curve" smooth="yes"/>
      <point x="285" y="37"/>
      <point x="349" y="89"/>
      <point x="349" y="175" type="curve"/>
      <point x="380" y="144" type="line"/>
      <point x="380" y="55"/>
      <point x="299" y="-10"/>
      <point x="202" y="-10" type="curve" smooth="yes"/>
      <point x="92" y="-10"/>
      <point x="34" y="46"/>
      <point x="34" y="128" type="curve" smooth="yes"/>
      <point x="34" y="230"/>
      <point x="117" y="284"/>
      <point x="226" y="284" type="curve" smooth="yes"/>
      <point x="310" y="284"/>
      <point x="356" y="244"/>
      <point x="370" y="229" type="curve"/>
      <point x="370" y="197" type="line"/>
      <point x="336" y="223"/>
      <point x="290" y="243"/>
      <point x="228" y="243" type="curve" smooth="yes"/>
      <point x="139" y="243"/>
      <point x="87" y="202"/>
    </contour>
    <contour>
      <point x="100" y="369" type="curve"/>
      <point x="74" y="409" type="line"/>
      <point x="107" y="436"/>
      <point x="161" y="470"/>
      <point x="244" y="470" type="curve" smooth="yes"/>
      <point x="341" y="470"/>
      <point x="388" y="413"/>
      <point x="388" y="330" type="curve" smooth="yes"/>
      <point x="388" y="142" type="line"/>
      <point x="349" y="142" type="line"/>
      <point x="349" y="320" type="line" smooth="yes"/>
      <point x="349" y="377"/>
      <point x="309" y="424"/>
      <point x="243" y="424" type="curve" smooth="yes"/>
      <point x="173" y="424"/>
      <point x="125" y="390"/>
    </contour>
    <contour>
      <point x="388" y="217" type="line"/>
      <point x="388" y="262" type="line"/>
      <point x="773" y="262" type="line"/>
      <point x="787" y="217" type="line"/>
    </contour>
    <contour>
      <point x="733" y="250" type="line" smooth="yes"/>
      <point x="733" y="355"/>
      <point x="665" y="424"/>
      <point x="575" y="424" type="curve" smooth="yes"/>
      <point x="475" y="424"/>
      <point x="403" y="350"/>
      <point x="403" y="250" type="curve"/>
      <point x="402" y="232" type="line"/>
      <point x="402" y="114"/>
      <point x="471" y="39"/>
      <point x="569" y="39" type="curve" smooth="yes"/>
      <point x="656" y="39"/>
      <point x="704" y="80"/>
      <point x="739" y="134" type="curve"/>
      <point x="781" y="107" type="line"/>
      <point x="735" y="37"/>
      <point x="682" y="-10"/>
      <point x="563" y="-10" type="curve" smooth="yes"/>
      <point x="442" y="-10"/>
      <point x="355" y="91"/>
      <point x="355" y="230" type="curve" smooth="yes"/>
      <point x="355" y="247"/>
      <point x="363" y="263"/>
      <point x="366" y="279" type="curve" smooth="yes"/>
      <point x="385" y="392"/>
      <point x="462" y="470"/>
      <point x="583" y="470" type="curve" smooth="yes"/>
      <point x="681" y="470"/>
      <point x="789" y="387"/>
      <point x="789" y="242" type="curve" smooth="yes"/>
      <point x="789" y="234"/>
      <point x="788" y="225"/>
      <point x="787" y="217" type="curve"/>
      <point x="733" y="230" type="line"/>
    </contour>
  </outline>
</glyph>
<glyph name="ccedilla" format="1">
  <advance width="482"/>
  <unicode hex="00E7"/>
  <outline>
    <contour>
      <point x="87" y="230" type="curve" smooth="yes"/>
      <point x="87" y="119"/>
      <point x="166" y="39"/>
      <point x="270" y="39" type="curve" smooth="yes"/>
      <point x="344" y="39"/>
      <point x="407" y="77"/>
      <point x="428" y="114" type="curve"/>
      <point x="428" y="49" type="line"/>
      <point x="400" y="16"/>
      <point x="337" y="-10"/>
      <point x="270" y="-10" type="curve" smooth="yes"/>
      <point x="136" y="-10"/>
      <point x="34" y="91"/>
      <point x="34" y="230" type="curve" smooth="yes"/>
      <point x="34" y="369"/>
      <point x="136" y="470"/>
      <point x="270" y="470" type="curve" smooth="yes"/>
      <point x="337" y="470"/>
      <point x="400" y="443"/>
      <point x="428" y="411" type="curve"/>
      <point x="428" y="346" type="line"/>
      <point x="407" y="383"/>
      <point x="344" y="421"/>
      <point x="270" y="421" type="curve" smooth="yes"/>
      <point x="166" y="421"/>
      <point x="87" y="341"/>
    </contour>
    <contour>
      <point x="274" y="33" type="line"/>
      <point x="314" y="33" type="line"/>
      <point x="254" y="-66" type="line"/>
      <point x="200" y="-103" type="line"/>
    </contour>
    <contour>
      <point x="360" y="-129" type="curve"/>
      <point x="322" y="-129" type="line"/>
      <point x="322" y="-97"/>
      <point x="299" y="-82"/>
      <point x="267" y="-82" type="curve" smooth="yes"/>
      <point x="249" y="-82"/>
      <point x="223" y="-87"/>
      <point x="200" y="-103" type="curve"/>
      <point x="228" y="-74" type="line"/>
      <point x="254" y="-58"/>
      <point x="267" y="-55"/>
      <point x="288" y="-55" type="curve" smooth="yes"/>
      <point x="321" y="-55"/>
      <point x="360" y="-80"/>
    </contour>
    <contour>
      <point x="360" y="-129" type="line"/>
      <point x="360" y="-190"/>
      <point x="309" y="-223"/>
      <point x="254" y="-223" type="curve" smooth="yes"/>
      <point x="217" y="-223"/>
      <point x="192" y="-213"/>
      <point x="164" y="-185" type="curve"/>
      <point x="187" y="-159" type="line"/>
      <point x="210" y="-178"/>
      <point x="225" y="-187"/>
      <point x="254" y="-187" type="curve" smooth="yes"/>
      <point x="293" y="-187"/>
      <point x="322" y="-166"/>
      <point x="322" y="-129" type="curve"/>
    </contour>
  </outline>
</glyph>
<glyph name="ocircumflex" format="1">
  <advance width="550"/>
  <unicode hex="00F4"/>
  <outline>
    <contour>
      <point x="39" y="230" type="curve" smooth="yes"/>
      <point x="39" y="369"/>
      <point x="141" y="470"/>
      <point x="275" y="470" type="curve" smooth="yes"/>
      <point x="409" y="470"/>
      <point x="511" y="369"/>
      <point x="511" y="230" type="curve" smooth="yes"/>
      <point x="511" y="91"/>
      <point x="409" y="-10"/>
      <point x="275" y="-10" type="curve" smooth="yes"/>
      <point x="141" y="-10"/>
      <point x="39" y="91"/>
    </contour>
    <contour>
      <point x="92" y="230" type="curve" smooth="yes"/>
      <point x="92" y="119"/>
      <point x="171" y="39"/>
      <point x="275" y="39" type="curve" smooth="yes"/>
      <point x="379" y="39"/>
      <point x="458" y="119"/>
      <point x="458" y="230" type="curve" smooth="yes"/>
      <point x="458" y="341"/>
      <point x="379" y="421"/>
      <point x="275" y="421" type="curve" smooth="yes"/>
      <point x="171" y="421"/>
      <point x="92" y="341"/>
    </contour>
    <contour>
      <point x="275" y="661" type="line"/>
      <point x="148" y="550" type="line"/>
      <point x="115" y="577" type="line"/>
      <point x="275" y="717" type="line"/>
      <point x="435" y="577" type="line"/>
      <point x="402" y="550" type="line"/>
    </contour>
  </outline>
</glyph>
<glyph name="Cdotaccent" format="1">
  <advance width="685"/>
  <unicode hex="010A"/>
  <outline>
    <contour>
      <point x="103" y="350" type="curve" smooth="yes"/>
      <point x="103" y="172"/>
      <point x="228" y="47"/>
      <point x="386" y="47" type="curve" smooth="yes"/>
      <point x="485" y="47"/>
      <point x="558" y="83"/>
      <point x="611" y="143" type="curve"/>
      <point x="611" y="69" type="line"/>
      <point x="552" y="17"/>
      <point x="488" y="-9"/>
      <point x="386" y="-9" type="curve" smooth="yes"/>
      <point x="192" y="-9"/>
      <point x="44" y="141"/>
      <point x="44" y="350" type="curve" smooth="yes"/>
      <point x="44" y="559"/>
      <point x="192" y="709"/>
      <point x="386" y="709" type="curve" smooth="yes"/>
      <point x="488" y="709"/>
      <point x="552" y="683"/>
      <point x="611" y="631" type="curve"/>
      <point x="611" y="558" type="line"/>
      <point x="559" y="618"/>
      <point x="483" y="653"/>
      <point x="386" y="653" type="curve" smooth="yes"/>
      <point x="229" y="653"/>
      <point x="103" y="529"/>
    </contour>
    <contour>
      <point x="349" y="811" type="curve" smooth="yes"/>
      <point x="349" y="832"/>
      <point x="366" y="848"/>
      <point x="386" y="848" type="curve" smooth="yes"/>
      <point x="406" y="848"/>
      <point x="423" y="832"/>
      <point x="423" y="811" type="curve" smooth="yes"/>
      <point x="423" y="790"/>
      <point x="406" y="773"/>
      <point x="386" y="773" type="curve" smooth="yes"/>
      <point x="366" y="773"/>
      <point x="349" y="790"/>
    </contour>
  </outline>
</glyph>
<glyph name="Eogonek" format="1">
  <advance width="534"/>
  <unicode hex="0118"/>
  <outline>
    <contour>
      <point x="113" y="0" type="line"/>
      <point x="113" y="52" type="line"/>
      <point x="460" y="52" type="line"/>
      <point x="460" y="0" type="line"/>
    </contour>
    <contour>
      <point x="113" y="648" type="line"/>
      <point x="113" y="700" type="line"/>
      <point x="460" y="700" type="line"/>
      <point x="460" y="648" type="line"/>
    </contour>
    <contour>
      <point x="113" y="358" type="line"/>
      <point x="113" y="410" type="line"/>
      <point x="440" y="410" type="line"/>
      <point x="440" y="358" type="line"/>
    </contour>
    <contour>
      <point x="84" y="700" type="line"/>
      <point x="139" y="700" type="line"/>
      <point x="139" y="0" type="line"/>
      <point x="84" y="0" type="line"/>
    </contour>
    <contour>
      <point x="472" y="-148" type="curve"/>
      <point x="495" y="-181" type="line"/>
      <point x="480" y="-201"/>
      <point x="446" y="-221"/>
      <point x="403" y="-221" type="curve" smooth="yes"/>
      <point x="327" y="-221"/>
      <point x="288" y="-184"/>
      <point x="288" y="-129" type="curve"/>
      <point x="340" y="-117" type="line"/>
      <point x="340" y="-157"/>
      <point x="368" y="-175"/>
      <point x="406" y="-175" type="curve" smooth="yes"/>
      <point x="438" y="-175"/>
      <point x="458" y="-163"/>
    </contour>
    <contour>
      <point x="340" y="-117" type="curve"/>
      <point x="288" y="-129" type="line"/>
      <point x="288" y="-66"/>
      <point x="358" y="-18"/>
      <point x="428" y="18" type="curve"/>
      <point x="456" y="-1" type="line"/>
      <point x="398" y="-27"/>
      <point x="340" y="-72"/>
    </contour>
  </outline>
</glyph>
<glyph name="gcircumflex" format="1">
  <advance width="558"/>
  <unicode hex="011D"/>
  <outline>
    <contour>
      <point x="456" y="230" type="curve"/>
      <point x="432" y="230" type="line"/>
      <point x="432" y="344"/>
      <point x="349" y="421"/>
      <point x="271" y="421" type="curve" smooth="yes"/>
      <point x="168" y="421"/>
      <point x="92" y="348"/>
      <point x="92" y="230" type="curve"/>
      <point x="39" y="230" type="line"/>
      <point x="39" y="379"/>
      <point x="138" y="470"/>
      <point x="263" y="470" type="curve" smooth="yes"/>
      <point x="370" y="470"/>
      <point x="456" y="379"/>
    </contour>
    <contour>
      <point x="432" y="230" type="curve"/>
      <point x="456" y="230" type="line"/>
      <point x="456" y="81"/>
      <point x="370" y="-10"/>
      <point x="263" y="-10" type="curve" smooth="yes"/>
      <point x="138" y="-10"/>
      <point x="39" y="81"/>
      <point x="39" y="230" type="curve"/>
      <point x="92" y="230" type="line"/>
      <point x="92" y="112"/>
      <point x="168" y="39"/>
      <point x="271" y="39" type="curve" smooth="yes"/>
      <point x="349" y="39"/>
      <point x="432" y="116"/>
    </contour>
    <contour>
      <point x="50" y="-30" type="curve"/>
      <point x="103" y="-30" type="line"/>
      <point x="103" y="-116"/>
      <point x="167" y="-181"/>
      <point x="264" y="-181" type="curve" smooth="yes"/>
      <point x="349" y="-181"/>
      <point x="432" y="-122"/>
      <point x="432" y="10" type="curve" smooth="yes"/>
      <point x="432" y="460" type="line"/>
      <point x="484" y="460" type="line"/>
      <point x="484" y="10" type="line" smooth="yes"/>
      <point x="484" y="-149"/>
      <point x="379" y="-230"/>
      <point x="264" y="-230" type="curve" smooth="yes"/>
      <point x="137" y="-230"/>
      <point x="50" y="-149"/>
    </contour>
    <contour>
      <point x="261" y="641" type="line"/>
      <point x="134" y="530" type="line"/>
      <point x="101" y="557" type="line"/>
      <point x="261" y="697" type="line"/>
      <point x="421" y="557" type="line"/>
      <point x="388" y="530" type="line"/>
    </contour>
  </outline>
</glyph>
<glyph name="imacron" format="1">
  <advance width="232"/>
  <unicode hex="012B"/>
  <outline>
    <contour>
      <point x="90" y="460" type="line"/>
      <point x="142" y="460" type="line"/>
      <point x="142" y="0" type="line"/>
      <point x="90" y="0" type="line"/>
    </contour>
    <contour>
      <point x="-45" y="556" type="line"/>
      <point x="-45" y="605" type="line"/>
      <point x="305" y="605" type="line"/>
      <point x="305" y="556" type="line"/>
    </contour>
  </outline>
</glyph>
<glyph name="uni0136" format="1">
  <advance width="520"/>
  <unicode hex="0136"/>
  <outline>
    <contour>
      <point x="82" y="700" type="line"/>
      <point x="137" y="700" type="line"/>
      <point x="137" y="0" type="line"/>
      <point x="82" y="0" type="line"/>
    </contour>
    <contour>
      <point x="427" y="700" type="line"/>
      <point x="497" y="700" type="line"/>
      <point x="189" y="372" type="line"/>
      <point x="512" y="0" type="line"/>
      <point x="442" y="0" type="line"/>
      <point x="121" y="371" type="line"/>
    </contour>
    <contour>
      <point x="335" y="-66" type="line"/>
      <point x="387" y="-86" type="line"/>
      <point x="277" y="-336" type="line"/>
      <point x="240" y="-323" type="line"/>
    </contour>
  </outline>
</glyph>
<glyph name="Lacute" format="1">
  <advance width="442"/>
  <unicode hex="0139"/>
  <outline>
    <contour>
      <point x="115" y="0" type="line"/>
      <point x="115" y="52" type="line"/>
      <point x="428" y="52" type="line"/>
      <point x="428" y="0" type="line"/>
    </contour>
    <contour>
      <point x="84" y="700" type="line"/>
      <point x="139" y="700" type="line"/>
      <point x="139" y="0" type="line"/>
      <point x="84" y="0" type="line"/>
    </contour>
    <contour>
      <point x="404" y="922" type="line"/>
      <point x="227" y="769" type="line"/>
      <point x="198" y="789" type="line"/>
      <point x="356" y="949" type="line"/>
    </contour>
  </outline>
</glyph>
<glyph name="Ldot" format="1">
  <advance width="442"/>
  <unicode hex="013F"/>
  <outline>
    <contour>
      <point x="115" y="0" type="line"/>
      <point x="115" y="52" type="line"/>
      <point x="428" y="52" type="line"/>
      <point x="428" y="0" type="line"/>
    </contour>
    <contour>
      <point x="84" y="700" type="line"/>
      <point x="139" y="700" type="line"/>
      <point x="139" y="0" type="line"/>
      <point x="84" y="0" type="line"/>
    </contour>
    <contour>
      <point x="271" y="407" type="curve" smooth="yes"/>
      <point x="271" y="428"/>
      <point x="288" y="445"/>
      <point x="308" y="445" type="curve" smooth="yes"/>
      <point x="328" y="445"/>
      <point x="346" y="428"/>
      <point x="346" y="407" type="curve" smooth="yes"/>
      <point x="346" y="386"/>
      <point x="328" y="370"/>
      <point x="308" y="370" type="curve" smooth="yes"/>
      <point x="288" y="370"/>
      <point x="271" y="386"/>
    </contour>
  </outline>
</glyph>
<glyph name="guilsinglleft" format="1">
  <advance width="340"/>
  <unicode hex="2039"/>
  <outline>
    <contour>
      <point x="86" y="243" type="line"/>
      <point x="40" y="255" type="line"/>
      <point x="237" y="490" type="line"/>
      <point x="270" y="460" type="line"/>
    </contour>
    <contour>
      <point x="40" y="255" type="line"/>
      <point x="86" y="273" type="line"/>
      <point x="270" y="50" type="line"/>
      <point x="237" y="20" type="line"/>
    </contour>
  </outline>
</glyph>
<glyph name="guilsinglright" format="1">
  <advance width="350"/>
  <unicode hex="203A"/>
  <outline>
    <contour>
      <point x="264" y="267" type="line"/>
      <point x="310" y="255" type="line"/>
      <point x="113" y="20" type="line"/>
      <point x="80" y="50" type="line"/>
    </contour>
    <contour>
      <point x="310" y="255" type="line"/>
      <point x="264" y="237" type="line"/>
      <point x="80" y="460" type="line"/>
      <point x="113" y="490" type="line"/>
    </contour>
  </outline>
</glyph>
<glyph name="uni2070" format="1">
  <advance width="352"/>
  <unicode hex="2070"/>
  <outline>
    <contour>
      <point x="65" y="490" type="curve" smooth="yes"/>
      <point x="65" y="386"/>
      <point x="107" y="305"/>
      <point x="178" y="305" type="curve" smooth="yes"/>
      <point x="249" y="305"/>
      <point x="291" y="386"/>
      <point x="291" y="490" type="curve" smooth="yes"/>
      <point x="291" y="594"/>
      <point x="249" y="675"/>
      <point x="178" y="675" type="curve" smooth="yes"/>
      <point x="107" y="675"/>
      <point x="65" y="594"/>
    </contour>
    <contour>
      <point x="32" y="490" type="curve" smooth="yes"/>
      <point x="32" y="613"/>
      <point x="90" y="706"/>
      <point x="178" y="706" type="curve" smooth="yes"/>
      <point x="266" y="706"/>
      <point x="325" y="613"/>
      <point x="325" y="490" type="curve" smooth="yes"/>
      <point x="325" y="367"/>
      <point x="266" y="274"/>
      <point x="178" y="274" type="curve" smooth="yes"/>
      <point x="90" y="274"/>
      <point x="32" y="367"/>
    </contour>
  </outline>
</glyph>
<glyph name="Euro" format="1">
  <advance width="628"/>
  <unicode hex="20AC"/>
  <outline>
    <contour>
      <point x="39" y="422" type="line"/>
      <point x="39" y="455" type="line"/>
      <point x="540" y="455" type="line"/>
      <point x="540" y="422" type="line"/>
    </contour>
    <contour>
      <point x="39" y="302" type="line"/>
      <point x="39" y="335" type="line"/>
      <point x="514" y="335" type="line"/>
      <point x="514" y="302" type="line"/>
    </contour>
    <contour>
      <point x="157" y="350" type="curve" smooth="yes"/>
      <point x="157" y="170"/>
      <point x="253" y="42"/>
      <point x="394" y="42" type="curve" smooth="yes"/>
      <point x="451" y="42"/>
      <point x="503" y="61"/>
      <point x="544" y="97" type="curve"/>
      <point x="544" y="31" type="line"/>
      <point x="499" y="5"/>
      <point x="448" y="-10"/>
      <point x="394" y="-10" type="curve" smooth="yes"/>
      <point x="220" y="-10"/>
      <point x="102" y="141"/>
      <point x="102" y="350" type="curve" smooth="yes"/>
      <point x="102" y="559"/>
      <point x="220" y="710"/>
      <point x="394" y="710" type="curve" smooth="yes"/>
      <point x="448" y="710"/>
      <point x="499" y="695"/>
      <point x="544" y="669" type="curve"/>
      <point x="544" y="603" type="line"/>
      <point x="503" y="639"/>
      <point x="451" y="658"/>
      <point x="394" y="658" type="curve" smooth="yes"/>
      <point x="249" y="658"/>
      <point x="157" y="530"/>
    </contour>
  </outline>
</glyph>
<glyph name="uni2158" format="1">
  <advance width="866"/>
  <unicode hex="2158"/>
  <outline>
    <contour>
      <point x="711" y="700" type="line"/>
      <point x="755" y="700" type="line"/>
      <point x="214" y="0" type="line"/>
      <point x="170" y="0" type="line"/>
    </contour>
    <contour>
      <point x="32" y="364" type="line"/>
      <point x="60" y="393" type="line"/>
      <point x="257" y="393" type="line" smooth="yes"/>
      <point x="264" y="393" type="line" smooth="yes"/>
      <point x="342" y="393" type="line"/>
      <point x="342" y="364" type="line"/>
    </contour>
    <contour>
      <point x="67" y="364" type="line"/>
      <point x="32" y="364" type="line"/>
      <point x="264" y="700" type="line"/>
      <point x="277" y="700" type="line"/>
      <point x="277" y="280" type="line"/>
      <point x="243" y="280" type="line"/>
      <point x="243" y="378" type="line" smooth="yes"/>
      <point x="243" y="382" type="line" smooth="yes"/>
      <point x="243" y="624" type="line"/>
    </contour>
    <contour>
      <point x="824" y="136" type="curve" smooth="yes"/>
      <point x="824" y="41"/>
      <point x="760" y="-8"/>
      <point x="681" y="-8" type="curve" smooth="yes"/>
      <point x="609" y="-8"/>
      <point x="568" y="30"/>
      <point x="542" y="80" type="curve"/>
      <point x="570" y="99" type="line"/>
      <point x="590" y="56"/>
      <point x="628" y="23"/>
      <point x="681" y="23" type="curve" smooth="yes"/>
      <point x="746" y="23"/>
      <point x="789" y="65"/>
      <point x="789" y="136" type="curve" smooth="yes"/>
      <point x="789" y="200"/>
      <point x="746" y="243"/>
      <point x="688" y="243" type="curve" smooth="yes"/>
      <point x="643" y="243"/>
      <point x="612" y="229"/>
      <point x="574" y="194" type="curve"/>
      <point x="596" y="226" type="line"/>
      <point x="620" y="255"/>
      <point x="659" y="273"/>
      <point x="701" y="273" type="curve" smooth="yes"/>
      <point x="771" y="273"/>
      <point x="824" y="217"/>
    </contour>
    <contour>
      <point x="654" y="389" type="line"/>
      <point x="616" y="234" type="line"/>
      <point x="574" y="194" type="line"/>
      <point x="629" y="418" type="line"/>
      <point x="827" y="418" type="line"/>
      <point x="827" y="389" type="line"/>
    </contour>
  </outline>
</glyph>
<glyph name="uni2159" format="1">
  <advance width="734"/>
  <unicode hex="2159"/>
  <outline>
    <contour>
      <point x="589" y="700" type="line"/>
      <point x="633" y="700" type="line"/>
      <point x="92" y="0" type="line"/>
      <point x="48" y="0" type="line"/>
    </contour>
    <contour>
      <point x="26" y="633" type="line"/>
      <point x="26" y="668" type="line"/>
      <point x="156" y="699" type="line"/>
      <point x="156" y="274" type="line"/>
      <point x="123" y="274" type="line"/>
      <point x="123" y="659" type="line"/>
    </contour>
    <contour>
      <point x="457" y="134" type="curve" smooth="yes"/>
      <point x="457" y="69"/>
      <point x="502" y="22"/>
      <point x="564" y="22" type="curve" smooth="yes"/>
      <point x="626" y="22"/>
      <point x="670" y="69"/>
      <point x="670" y="134" type="curve" smooth="yes"/>
      <point x="670" y="197"/>
      <point x="625" y="243"/>
      <point x="567" y="243" type="curve" smooth="yes"/>
      <point x="501" y="243"/>
      <point x="457" y="194"/>
    </contour>
    <contour>
      <point x="594" y="418" type="line"/>
      <point x="636" y="418" type="line"/>
      <point x="498" y="231" type="line"/>
      <point x="496" y="233" type="line"/>
      <point x="516" y="257"/>
      <point x="544" y="267"/>
      <point x="578" y="267" type="curve" smooth="yes"/>
      <point x="646" y="267"/>
      <point x="702" y="209"/>
      <point x="702" y="134" type="curve" smooth="yes"/>
      <point x="702" y="50"/>
      <point x="645" y="-8"/>
      <point x="564" y="-8" type="curve" smooth="yes"/>
      <point x="483" y="-8"/>
      <point x="426" y="50"/>
      <point x="426" y="134" type="curve" smooth="yes"/>
      <point x="426" y="168"/>
      <point x="439" y="202"/>
      <point x="455" y="224" type="curve" smooth="yes"/>
    </contour>
  </outline>
</glyph>
<glyph name="uni2219" format="1">
  <advance width="284"/>
  <unicode hex="2219"/>
  <outline>
    <contour>
      <point x="105" y="429" type="curve" smooth="yes"/>
      <point x="105" y="450"/>
      <point x="122" y="466"/>
      <point x="142" y="466" type="curve" smooth="yes"/>
      <point x="162" y="466"/>
      <point x="179" y="450"/>
      <point x="179" y="429" type="curve" smooth="yes"/>
      <point x="179" y="408"/>
      <point x="162" y="391"/>
      <point x="142" y="391" type="curve" smooth="yes"/>
      <point x="122" y="391"/>
      <point x="105" y="408"/>
    </contour>
  </outline>
</glyph>
<glyph name="uniFF13" format="1">
  <advance width="568"/>
  <unicode hex="FF13"/>
  <outline>
    <contour>
      <point x="261" y="352" type="curve"/>
      <point x="261" y="388" type="line"/>
      <point x="351" y="388"/>
      <point x="429" y="445"/>
      <point x="429" y="526" type="curve" smooth="yes"/>
      <point x="429" y="599"/>
      <point x="383" y="660"/>
      <point x="296" y="660" type="curve" smooth="yes"/>
      <point x="213" y="660"/>
      <point x="154" y="603"/>
      <point x="154" y="526" type="curve"/>
      <point x="102" y="526" type="line"/>
      <point x="102" y="635"/>
      <point x="180" y="710"/>
      <point x="295" y="710" type="curve" smooth="yes"/>
      <point x="415" y="710"/>
      <point x="485" y="623"/>
      <point x="485" y="528" type="curve" smooth="yes"/>
      <point x="485" y="425"/>
      <point x="384" y="352"/>
    </contour>
    <contour>
      <point x="291" y="-10" type="curve" smooth="yes"/>
      <point x="156" y="-10"/>
      <point x="72" y="76"/>
      <point x="72" y="185" type="curve"/>
      <point x="127" y="185" type="line"/>
      <point x="127" y="103"/>
      <point x="191" y="42"/>
      <point x="291" y="42" type="curve" smooth="yes"/>
      <point x="387" y="42"/>
      <point x="449" y="101"/>
      <point x="449" y="187" type="curve" smooth="yes"/>
      <point x="449" y="289"/>
      <point x="351" y="339"/>
      <point x="261" y="339" type="curve"/>
      <point x="261" y="375" type="line"/>
      <point x="384" y="375"/>
      <point x="505" y="316"/>
      <point x="505" y="181" type="curve" smooth="yes"/>
      <point x="505" y="66"/>
      <point x="416" y="-10"/>
    </contour>
  </outline>
</glyph>
<glyph name="uniFF19" format="1">
  <advance width="568"/>
  <unicode hex="FF19"/>
  <outline>
    <contour>
      <point x="461" y="474" type="curve" smooth="yes"/>
      <point x="461" y="582"/>
      <point x="388" y="660"/>
      <point x="284" y="660" type="curve" smooth="yes"/>
      <point x="180" y="660"/>
      <point x="107" y="582"/>
      <point x="107" y="474" type="curve" smooth="yes"/>
      <point x="107" y="370"/>
      <point x="184" y="292"/>
      <point x="280" y="292" type="curve" smooth="yes"/>
      <point x="390" y="292"/>
      <point x="461" y="374"/>
    </contour>
    <contour>
      <point x="234" y="0" type="line"/>
      <point x="165" y="0" type="line"/>
      <point x="393" y="311" type="line"/>
      <point x="397" y="308" type="line"/>
      <point x="364" y="267"/>
      <point x="318" y="251"/>
      <point x="261" y="251" type="curve" smooth="yes"/>
      <point x="147" y="251"/>
      <point x="54" y="349"/>
      <point x="54" y="474" type="curve" smooth="yes"/>
      <point x="54" y="614"/>
      <point x="149" y="710"/>
      <point x="284" y="710" type="curve" smooth="yes"/>
      <point x="419" y="710"/>
      <point x="514" y="614"/>
      <point x="514" y="474" type="curve" smooth="yes"/>
      <point x="514" y="417"/>
      <point x="492" y="360"/>
      <point x="465" y="323" type="curve" smooth="yes"/>
    </contour>
  </outline>
</glyph>
<glyph name="atilde.alt" format="1">
  <advance width="558"/>
  <outline>
    <contour>
      <point x="435" y="460" type="line"/>
      <point x="484" y="460" type="line"/>
      <point x="484" y="0" type="line"/>
      <point x="435" y="0" type="line"/>
    </contour>
    <contour>
      <point x="39" y="230" type="curve" smooth="yes"/>
      <point x="39" y="378"/>
      <point x="138" y="470"/>
      <point x="261" y="470" type="curve" smooth="yes"/>
      <point x="379" y="470"/>
      <point x="456" y="367"/>
      <point x="456" y="230" type="curve" smooth="yes"/>
      <point x="456" y="93"/>
      <point x="379" y="-10"/>
      <point x="261" y="-10" type="curve" smooth="yes"/>
      <point x="138" y="-10"/>
      <point x="39" y="82"/>
    </contour>
    <contour>
      <point x="92" y="230" type="curve" smooth="yes"/>
      <point x="92" y="110"/>
      <point x="171" y="39"/>
      <point x="268" y="39" type="curve" smooth="yes"/>
      <point x="354" y="39"/>
      <point x="432" y="120"/>
      <point x="432" y="230" type="curve" smooth="yes"/>
      <point x="432" y="340"/>
      <point x="354" y="421"/>
      <point x="268" y="421" type="curve" smooth="yes"/>
      <point x="171" y="421"/>
      <point x="92" y="350"/>
    </contour>
    <contour>
      <point x="124" y="561" type="line"/>
      <point x="130" y="602"/>
      <point x="166" y="633"/>
      <point x="211" y="633" type="curve" smooth="yes"/>
      <point x="272" y="633"/>
      <point x="281" y="586"/>
      <point x="335" y="586" type="curve" smooth="yes"/>
      <point x="358" y="586"/>
      <point x="373" y="602"/>
      <point x="391" y="634" type="curve"/>
      <point x="422" y="607" type="line"/>
      <point x="406" y="570"/>
      <point x="374" y="542"/>
      <point x="332" y="542" type="curve" smooth="yes"/>
      <point x="277" y="542"/>
      <point x="256" y="589"/>
      <point x="211" y="589" type="curve" smooth="yes"/>
      <point x="170" y="589"/>
      <point x="159" y="557"/>
      <point x="159" y="538" type="curve"/>
    </contour>
  </outline>
</glyph>
